{"title":"Kiss The Bride 2011 DVDRip Xvid AC3 LKRG","uid":6192665,"size":955935098,"categoryP":"video","categoryS":"movies","magnet":"?xt=urn:btih:2428a6b21e47349b3f8654772be6a7dca3d60115&amp;dn=Kiss+The+Bride+2011+DVDRip+Xvid+AC3+LKRG&amp;tr=udp%3A%2F%2Ftracker.openbittorrent.com%3A80&amp;tr=udp%3A%2F%2Fopen.demonii.com%3A1337&amp;tr=udp%3A%2F%2Ftracker.coppersurfer.tk%3A6969&amp;tr=udp%3A%2F%2Fexodus.desync.com%3A6969","seeders":0,"leechers":2,"uploader":".BONE.","files":67,"time":1298345803,"description":" &lt;a href=&quot;http://www.grinshare.com/img/8FERPY.png&quot; rel=&quot;nofollow&quot; target=&quot;_NEW&quot;&gt;http://www.grinshare.com/img/8FERPY.png&lt;/a&gt;\n &lt;a href=&quot;\nhttp://www.grinshare.com/img/6F5HCO.png&quot; rel=&quot;nofollow&quot; target=&quot;_NEW&quot;&gt;\nhttp://www.grinshare.com/img/6F5HCO.png&lt;/a&gt;\n &lt;a href=&quot;\nhttp://www.grinshare.com/img/V72VHD.png&quot; rel=&quot;nofollow&quot; target=&quot;_NEW&quot;&gt;\nhttp://www.grinshare.com/img/V72VHD.png&lt;/a&gt;\n &lt;a href=&quot;\nhttp://www.grinshare.com/img/IH3IG7.png&quot; rel=&quot;nofollow&quot; target=&quot;_NEW&quot;&gt;\nhttp://www.grinshare.com/img/IH3IG7.png&lt;/a&gt;\n &lt;a href=&quot;\nhttp://www.grinshare.com/img/POJHAB.png&quot; rel=&quot;nofollow&quot; target=&quot;_NEW&quot;&gt;\nhttp://www.grinshare.com/img/POJHAB.png&lt;/a&gt;\n\n\nThomas and Robin are deeply in love and ready to spend the rest of their lives together. Nothing will stop this wedding from happening, not even overprotective feuding mothers, a missing father, and a mischievous teenage sister. However, this couple is about to face their biggest challenge. While Robin believes she is marrying the perfect man, Thomas is consumed with guilt about a past infidelity. The not-so-perfect couple s love for each other is put to the test in this irresistibly genuine comedy about love, commitment and the power of forgiveness. \n &lt;a href=&quot;\nhttp://www.imdb.com/title/tt1772940/&quot; rel=&quot;nofollow&quot; target=&quot;_NEW&quot;&gt;\nhttp://www.imdb.com/title/tt1772940/&lt;/a&gt;\n\nFormat;AVI\n\nFile Size:912mb\n\nVideo\nID : 0\nFormat : MPEG-4 Visual\nFormat profile : Advanced Simple@L5\nFormat settings, BVOP : Yes\nFormat settings, QPel : No\nFormat settings, GMC : No warppoints\nFormat settings, Matrix : Custom\nCodec ID : XVID\nCodec ID/Hint : XviD\nDuration : 1h 20mn\nBit rate : 1 134 Kbps\nWidth : 680 pixels\nHeight : 372 pixels\nDisplay aspect ratio : 16:9\nFrame rate : 29.970 fps\nColor space : YUV\nChroma subsampling : 4:2:0\nBit depth : 8 bits\nScan type : Progressive\nBits/(Pixel*Frame) : 0.150\nStream size : 654 MiB (71%)\nWriting library : XviD 1.2.1 (UTC 2008-12-04)\n\nAudio\nID : 1\nFormat : AC-3\nFormat/Info : Audio Coding 3\nMode extension : CM (complete main)\nCodec ID : 2000\nDuration : 1h 20mn\nBit rate mode : Constant\nBit rate : 448 Kbps\nChannel(s) : 5 channels\nChannel positions : Front: L C R, Side: L R\nSampling rate : 48.0 KHz\nBit depth : 16 bits\nStream size : 258 MiB (28%)\nAlignment : Aligned on interleaves\nInterleave, duration : 33 ms (1.00 video frame)\nInterleave, preload duration : 512 ms\n\n\nDuration:1:21\n\nRelease Date:2011\n\nLanguage:English","torrent":{"xt":"urn:btih:2428a6b21e47349b3f8654772be6a7dca3d60115","amp;dn":"Kiss+The+Bride+2011+DVDRip+Xvid+AC3+LKRG","amp;tr":["udp%3A%2F%2Ftracker.openbittorrent.com%3A80","udp%3A%2F%2Fopen.demonii.com%3A1337","udp%3A%2F%2Ftracker.coppersurfer.tk%3A6969","udp%3A%2F%2Fexodus.desync.com%3A6969"],"infoHash":"2428a6b21e47349b3f8654772be6a7dca3d60115","infoHashBuffer":{"type":"Buffer","data":[36,40,166,178,30,71,52,155,63,134,84,119,43,230,167,220,163,214,1,21]},"announce":[],"urlList":[]}}